<svg width="235.772509765625px" height="224px" xmlns="http://www.w3.org/2000/svg" viewBox="132.1137451171875 -37 235.772509765625 224" style="background-color: rgba(0, 0, 0, 0);" preserveAspectRatio="xMidYMid"><defs><filter id="editing-hole" x="-100%" y="-100%" width="300%" height="300%"><feFlood flood-color="#000" result="black"></feFlood><feMorphology operator="dilate" radius="2" in="SourceGraphic" result="erode"></feMorphology><feGaussianBlur in="erode" stdDeviation="4" result="blur"></feGaussianBlur><feOffset in="blur" dx="2" dy="2" result="offset"></feOffset><feComposite operator="atop" in="offset" in2="black" result="merge"></feComposite><feComposite operator="in" in="merge" in2="SourceGraphic" result="inner-shadow"></feComposite></filter></defs><g filter="url(#editing-hole)"><g transform="translate(166.12000453472137, 111.47999954223633)"><path d="M32.52-6.96L32.52-6.96L32.52-6.96Q32.88-6.96 32.88-6.24L32.88-6.24L32.88-6.24Q32.88-5.52 31.20-3.84L31.20-3.84L30-2.04L30-2.04Q26.76 2.88 25.26 3.72L25.26 3.72L25.26 3.72Q23.76 4.56 22.86 4.56L22.86 4.56L22.86 4.56Q21.96 4.56 20.10 4.14L20.10 4.14L20.10 4.14Q18.24 3.72 18.18 3.24L18.18 3.24L18.18 3.24Q18.12 2.76 18.12 1.20L18.12 1.20L18.12 1.20Q18.12-0.36 20.40-6.30L20.40-6.30L20.40-6.30Q22.68-12.24 25.68-18L25.68-18L25.68-18Q31.20-28.80 36.72-38.88L36.72-38.88L36.72-38.88Q37.80-40.92 37.80-42.06L37.80-42.06L37.80-42.06Q37.80-43.20 37.44-43.80L37.44-43.80L37.44-43.80Q38.16-47.28 43.38-52.68L43.38-52.68L43.38-52.68Q48.60-58.08 52.92-58.08L52.92-58.08L52.92-58.08Q54.84-58.08 57.60-56.58L57.60-56.58L57.60-56.58Q60.36-55.08 60-52.68L60-52.68L60-52.68Q59.16-53.28 58.44-53.28L58.44-53.28L58.44-53.28Q53.40-53.28 45.84-43.44L45.84-43.44L45.84-43.44Q33.24-27.12 24.48-6L24.48-6L24.48-6Q23.52-3.48 23.52-2.58L23.52-2.58L23.52-2.58Q23.52-1.68 23.52-1.44L23.52-1.44L23.52-1.44Q24-0.24 25.50-0.72L25.50-0.72L25.50-0.72Q27-1.20 28.32-2.88L28.32-2.88L28.32-2.88Q31.44-6.96 32.52-6.96ZM78.24-58.68L78.24-58.68L78.24-58.68Q79.20-60.24 81.12-62.28L81.12-62.28L81.12-62.28Q75.84-62.40 65.28-63.24L65.28-63.24L65.28-63.24Q52.20-64.32 47.40-64.32L47.40-64.32L47.40-64.32Q42.60-64.32 34.08-63.48L34.08-63.48L34.08-63.48Q22.68-61.92 14.46-57.18L14.46-57.18L14.46-57.18Q6.24-52.44 4.68-45.24L4.68-45.24L4.68-45.24Q4.44-44.52 4.44-43.50L4.44-43.50L4.44-43.50Q4.44-42.48 5.10-41.04L5.10-41.04L5.10-41.04Q5.76-39.60 6.72-38.76L6.72-38.76L6.72-38.76Q7.68-37.92 9.66-36.72L9.66-36.72L9.66-36.72Q11.64-35.52 12.30-34.98L12.30-34.98L12.30-34.98Q12.96-34.44 12.54-34.08L12.54-34.08L12.54-34.08Q12.12-33.72 11.70-33.72L11.70-33.72L11.70-33.72Q11.28-33.72 10.80-33.84L10.80-33.84L10.80-33.84Q6.72-35.04 3.90-38.34L3.90-38.34L3.90-38.34Q1.08-41.64 1.08-43.86L1.08-43.86L1.08-43.86Q1.08-46.08 1.68-47.64L1.68-47.64L1.68-47.64Q1.68-48.96 1.80-49.56L1.80-49.56L1.80-49.56Q3.60-58.08 12.72-62.76L12.72-62.76L12.72-62.76Q23.64-68.40 39.60-68.40L39.60-68.40L39.60-68.40Q49.32-68.40 65.10-66.24L65.10-66.24L65.10-66.24Q80.88-64.08 82.68-64.08L82.68-64.08L82.68-64.08Q85.92-67.68 87.60-67.80L87.60-67.80L87.60-67.80Q88.20-67.92 89.28-67.92L89.28-67.92L89.28-67.92Q90.36-67.92 91.20-67.14L91.20-67.14L91.20-67.14Q92.04-66.36 92.04-65.52L92.04-65.52L92.04-65.52Q92.04-64.68 91.32-63.84L91.32-63.84L91.32-63.84Q90.60-63 88.38-61.38L88.38-61.38L88.38-61.38Q86.16-59.76 84.84-58.44L84.84-58.44L84.84-58.44Q78.60-52.20 78.60-47.52L78.60-47.52L78.60-47.52Q78.60-45.48 79.44-44.22L79.44-44.22L79.44-44.22Q80.28-42.96 79.32-42.42L79.32-42.42L79.32-42.42Q78.36-41.88 77.28-43.20L77.28-43.20L77.28-43.20Q76.08-44.16 76.08-49.32L76.08-49.32L76.08-49.32Q76.08-54.48 78.24-58.68ZM69.96-13.20L69.96-13.20L69.96-13.20Q72.12-17.64 72.12-20.04L72.12-20.04L72.12-20.04Q72.12-22.44 71.58-23.82L71.58-23.82L71.58-23.82Q71.04-25.20 72.06-26.16L72.06-26.16L72.06-26.16Q73.08-27.12 74.64-26.88L74.64-26.88L74.64-26.88Q77.04-26.28 77.04-21.48L77.04-21.48L77.04-21.48Q77.04-16.68 71.40-8.88L71.40-8.88L71.40-8.88Q71.52-5.64 74.76-5.64L74.76-5.64L74.76-5.64Q78-5.64 84.60-12.60L84.60-12.60L84.60-12.60Q87.72-16.20 88.50-17.28L88.50-17.28L88.50-17.28Q89.28-18.36 89.88-18.06L89.88-18.06L89.88-18.06Q90.48-17.76 90.48-17.52L90.48-17.52L90.48-17.52Q90.48-16.32 86.16-11.28L86.16-11.28L86.16-11.28Q79.32-2.88 74.04-2.88L74.04-2.88L74.04-2.88Q70.56-2.88 69.12-5.88L69.12-5.88L69.12-5.88Q66.72-3.36 64.44-1.20L64.44-1.20L64.44-1.20Q59.76 2.76 54 2.76L54 2.76L54 2.76Q50.76 2.76 48.60 1.20L48.60 1.20L48.60 1.20Q44.40-1.32 44.40-7.80L44.40-7.80L44.40-7.80Q44.40-14.88 49.20-22.20L49.20-22.20L49.20-22.20Q51.96-26.52 55.68-29.76L55.68-29.76L55.68-29.76Q61.56-34.92 66.84-34.92L66.84-34.92L66.84-34.92Q68.16-34.92 69.36-34.56L69.36-34.56L69.36-34.56Q72.96-33.36 72.96-30L72.96-30L72.96-30Q72.96-27.24 71.52-27.24L71.52-27.24L71.52-27.24Q70.92-27.48 70.92-29.04L70.92-29.04L70.92-29.04Q70.92-31.20 68.52-31.20L68.52-31.20L68.52-31.20Q64.32-31.20 57.72-23.52L57.72-23.52L57.72-23.52Q51.12-15.84 49.80-8.04L49.80-8.04L49.80-8.04Q49.56-6.72 49.56-5.10L49.56-5.10L49.56-5.10Q49.56-3.48 50.64-1.38L50.64-1.38L50.64-1.38Q51.72 0.72 54.66 0.72L54.66 0.72L54.66 0.72Q57.60 0.72 61.08-1.92L61.08-1.92L61.08-1.92Q64.56-4.56 67.32-8.64L67.32-8.64L66.96-9.36L66.96-9.36Q66.48-11.28 67.44-12.48L67.44-12.48L67.44-12.48Q68.40-13.68 69.96-13.20ZM120.60-34.08L120.60-34.08L120.60-34.08Q123.36-34.08 123.36-31.14L123.36-31.14L123.36-31.14Q123.36-28.20 120.60-23.04L120.60-23.04L120.60-23.04Q117.84-17.88 116.52-14.64L116.52-14.64L116.52-14.64Q114.24-9.12 114.24-5.82L114.24-5.82L114.24-5.82Q114.24-2.52 115.20-1.44L115.20-1.44L115.20-1.44Q117 0.48 120.12-1.26L120.12-1.26L120.12-1.26Q123.24-3 128.82-7.98L128.82-7.98L128.82-7.98Q134.40-12.96 137.76-17.76L137.76-17.76L137.76-17.76Q138.24-18.36 138.90-18.06L138.90-18.06L138.90-18.06Q139.56-17.76 139.56-17.46L139.56-17.46L139.56-17.46Q139.56-17.16 139.32-16.80L139.32-16.80L139.32-16.80Q137.52-13.56 132.84-8.52L132.84-8.52L132.84-8.52Q128.16-3.48 123.84-0.42L123.84-0.42L123.84-0.42Q119.52 2.64 115.32 2.64L115.32 2.64L115.32 2.64Q111.24 2.52 109.56 0.78L109.56 0.78L109.56 0.78Q107.88-0.96 107.88-3.60L107.88-3.60L107.88-3.60Q107.88-6.24 108.36-8.70L108.36-8.70L108.36-8.70Q108.84-11.16 110.16-14.40L110.16-14.40L110.16-14.40Q112.32-19.56 113.94-22.44L113.94-22.44L113.94-22.44Q115.56-25.32 115.56-26.22L115.56-26.22L115.56-26.22Q115.56-27.12 114.60-27.12L114.60-27.12L114.60-27.12Q112.68-27.12 107.28-22.44L107.28-22.44L107.28-22.44Q103.56-18.96 96.30-9.30L96.30-9.30L96.30-9.30Q89.04 0.36 88.08 0.96L88.08 0.96L88.08 0.96Q83.76 3.12 82.68 3.12L82.68 3.12L82.68 3.12Q81.60 3.12 81.60 2.76L81.60 2.76L81.60 2.76Q81.60 2.40 81.84 1.74L81.84 1.74L81.84 1.74Q82.08 1.08 84.18-4.80L84.18-4.80L84.18-4.80Q86.28-10.68 88.74-17.70L88.74-17.70L88.74-17.70Q91.20-24.72 91.74-26.16L91.74-26.16L91.74-26.16Q92.28-27.60 92.46-28.62L92.46-28.62L92.46-28.62Q92.64-29.64 92.88-30.36L92.88-30.36L92.88-30.36Q93.12-31.08 93.78-31.98L93.78-31.98L93.78-31.98Q94.44-32.88 95.52-32.94L95.52-32.94L95.52-32.94Q96.60-33 98.28-32.70L98.28-32.70L98.28-32.70Q99.96-32.40 99.96-31.20L99.96-31.20L99.96-31.20Q99.96-30.36 98.64-27.54L98.64-27.54L98.64-27.54Q97.32-24.72 91.08-8.16L91.08-8.16L91.08-8.16Q95.40-13.44 102-20.34L102-20.34L102-20.34Q108.60-27.24 113.16-30.84L113.16-30.84L113.16-30.84Q117.72-34.08 120.60-34.08ZM147.84-33.24L147.84-33.24L147.84-33.24Q150.84-33.24 151.44-31.32L151.44-31.32L151.44-31.32Q151.68-30.24 151.14-29.22L151.14-29.22L151.14-29.22Q150.60-28.20 150.36-27.60L150.36-27.60L150.36-27.60Q150.12-27 150.00-26.64L150.00-26.64L150.00-26.64Q149.40-25.44 148.80-24.36L148.80-24.36L148.80-24.36Q141.96-10.68 141.60-6.96L141.60-6.96L141.60-6.96Q141.48-5.88 141.48-4.20L141.48-4.20L141.48-4.20Q141.48-2.52 142.44-1.44L142.44-1.44L142.44-1.44Q144.12 0.48 147.24-1.20L147.24-1.20L147.24-1.20Q150.36-2.88 155.94-7.92L155.94-7.92L155.94-7.92Q161.52-12.96 165.00-17.76L165.00-17.76L165.00-17.76Q165.48-18.36 166.08-18.06L166.08-18.06L166.08-18.06Q166.68-17.76 166.68-17.46L166.68-17.46L166.68-17.46Q166.68-17.16 166.44-16.80L166.44-16.80L166.44-16.80Q164.64-13.56 159.96-8.52L159.96-8.52L159.96-8.52Q152.28-0.24 147.12 1.68L147.12 1.68L147.12 1.68Q144.12 2.76 142.08 2.76L142.08 2.76L142.08 2.76Q137.28 2.76 135.72-1.80L135.72-1.80L135.72-1.80Q135.48-2.64 135.48-3.84L135.48-3.84L135.48-3.84Q135.48-8.04 139.32-16.56L139.32-16.56L139.32-16.56Q138.72-15.24 134.64-10.56L134.64-10.56L134.64-10.56Q133.56-9.36 132.96-10.56L132.96-10.56L132.96-10.56Q132.84-10.80 132.84-11.22L132.84-11.22L132.84-11.22Q132.84-11.64 133.32-12.24L133.32-12.24L133.32-12.24Q139.20-19.56 142.56-24.60L142.56-24.60L142.56-24.60Q142.32-25.20 142.80-26.16L142.80-26.16L142.80-26.16Q145.20-32.88 147.00-33.24L147.00-33.24L147.00-33.24Q147.36-33.24 147.84-33.24ZM157.32-49.20L157.32-49.20L156.36-45.36L156.36-45.36Q156.36-44.28 154.80-41.88L154.80-41.88L154.80-41.88Q153.24-39.48 152.40-39.48L152.40-39.48L152.40-39.48Q147.24-39.48 147.24-42L147.24-42L147.24-42Q147.24-42.48 152.40-46.44L152.40-46.44L154.44-48L154.44-48Q156.36-49.68 156.84-49.68L156.84-49.68L156.84-49.68Q157.32-49.68 157.32-49.20Z" fill="#ccc"></path></g></g><style>text {
  font-size: 64px;
  font-family: Arial Black;
  dominant-baseline: central;
  text-anchor: middle;
}</style></svg>